{"title":"Deviation 2012 DVDRip XviD DTRG","uid":7062674,"size":1546341884,"categoryP":"video","categoryS":"movies","magnet":"?xt=urn:btih:842762e415ccae662a7e04dd733788b562d3524f&amp;dn=Deviation+2012+DVDRip+XviD+DTRG&amp;tr=udp%3A%2F%2Ftracker.openbittorrent.com%3A80&amp;tr=udp%3A%2F%2Fopen.demonii.com%3A1337&amp;tr=udp%3A%2F%2Ftracker.coppersurfer.tk%3A6969&amp;tr=udp%3A%2F%2Fexodus.desync.com%3A6969","seeders":0,"leechers":1,"uploader":"MScope40","files":-1,"time":1330404642,"description":"\nFormat : AVI\nFormat/Info : Audio Video Interleave\nFile size : 1.42 GiB\nDuration : 1h 26mn\nOverall bit rate : 2 370 Kbps\nWriting library : VirtualDub build 32842/release\n\nVideo\nID : 0\nFormat : MPEG-4 Visual\nFormat profile : Advanced Simple@L5\nFormat settings, BVOP : 2\nFormat settings, QPel : No\nFormat settings, GMC : No warppoints\nFormat settings, Matrix : Default (H.263)\nMuxing mode : Packed bitstream\nCodec ID : XVID\nCodec ID/Hint : XviD\nDuration : 1h 26mn\nBit rate : 1 912 Kbps\nWidth : 720 pixels\nHeight : 304 pixels\nDisplay aspect ratio : 2.35:1\nFrame rate : 25.000 fps\nColor space : YUV\nChroma subsampling : 4:2:0\nBit depth : 8 bits\nScan type : Progressive\nCompression mode : Lossy\nBits/(Pixel*Frame) : 0.349\nStream size : 1.15 GiB (81%)\nWriting library : XviD 64\n\nAudio\nID : 1\nFormat : AC-3\nFormat/Info : Audio Coding 3\nMode extension : CM (complete main)\nCodec ID : 2000\nDuration : 1h 26mn\nBit rate mode : Constant\nBit rate : 448 Kbps\nChannel(s) : 6 channels\nChannel positions : Front: L C R, Side: L R, LFE\nSampling rate : 48.0 KHz\nBit depth : 16 bits\nCompression mode : Lossy\nStream size : 276 MiB (19%)\nAlignment : Aligned on interleaves\nInterleave, duration : 40 ms (1.00 video frame)\nInterleave, preload duration : 512 ms\n\n\n\n\n\n\n\n\n &lt;a href=&quot;\nhttp://www.imdb.com/title/tt1785353/&quot; rel=&quot;nofollow&quot; target=&quot;_NEW&quot;&gt;\nhttp://www.imdb.com/title/tt1785353/&lt;/a&gt;\n\n\n\n\n\nStoryline\n\nTold over one horrifying night, Deviation will take you on a white-knuckle journey into the mind of Frank Norton, a dangerous schizophrenic murderer as he escapes from Broadmoor Hospital and embarks on a murderous rampage across London. But when Frankie takes a hostage, the deadly game of cat-and-mouse truly begins.\n\n\n\n\n\n\n\nSource Used\n\n\n\nLegend PAL DVDR ...........Thanks\n\n\n\n\nEnjoy\n &lt;a href=&quot;\nhttp://i27.fastpic.ru/big/2012/0227/ba/577f5cb111cfca0ca0fc55686bfec2ba.jpg&quot; rel=&quot;nofollow&quot; target=&quot;_NEW&quot;&gt;\nhttp://i27.fastpic.ru/big/2012/0227/ba/577f5cb111cfca0ca0fc55686bfec2ba.jpg&lt;/a&gt;","torrent":{"xt":"urn:btih:842762e415ccae662a7e04dd733788b562d3524f","amp;dn":"Deviation+2012+DVDRip+XviD+DTRG","amp;tr":["udp%3A%2F%2Ftracker.openbittorrent.com%3A80","udp%3A%2F%2Fopen.demonii.com%3A1337","udp%3A%2F%2Ftracker.coppersurfer.tk%3A6969","udp%3A%2F%2Fexodus.desync.com%3A6969"],"infoHash":"842762e415ccae662a7e04dd733788b562d3524f","infoHashBuffer":{"type":"Buffer","data":[132,39,98,228,21,204,174,102,42,126,4,221,115,55,136,181,98,211,82,79]},"announce":[],"urlList":[]}}